<?xml version="1.0" encoding="utf-8"?>
<!-- Generator: Adobe Illustrator 27.2.0, SVG Export Plug-In . SVG Version: 6.00 Build 0) -->
<svg version="1.1" id="Layer_1" xmlns="http://www.w3.org/2000/svg" xmlns:xlink="http://www.w3.org/1999/xlink" x="0px" y="0px" viewBox="0 0 650 650" xml:space="preserve">
	<style>.st0{fill:#1d1d1d;}.st1{fill:#020202;}.st2{fill:#00b5ff;}.st3{fill:#fdfdfd;}</style>
	<g>
		<path class="st1" d="M635,0H15C6.7,0,0,6.7,0,15v620c0,8.3,6.7,15,15,15h620c8.3,0,15-6.7,15-15V15C650,6.7,643.3,0,635,0 M635,635H15V15h620V635z"/>
		<rect x="15" y="201" class="st2" width="620" height="434"/>
		<rect x="15" y="15" class="st3" width="620" height="186"/>
	</g>
	<g class="st1">
		<g>
			<path d="M100,460.9H88.3l-25.6-37.5v37.5h-13v-58.2h13.5l23.8,35.6v-35.6h13V460.9z"/>
			<path d="M106.2,449c0-8.8,7.5-12.4,16.4-13.7l9.6-1.6V433c0-3.2-1.7-5.2-5.9-5.2c-3.7,0-5.7,1.6-6.5,5.1l-12.4-1.9 c1.9-7.5,8.6-13.7,19.4-13.7c11.2,0,18.1,5.1,18.1,15.1v16.4c0,2.2,0.8,2.8,3.3,2.5v9.6c-7.5,1.2-12.5-0.2-14.7-3.8 c-2.8,2.9-7,4.6-12.6,4.6C112.3,461.7,106.2,456.6,106.2,449z M132.2,442.1l-7.5,1.4c-3.4,0.6-5.9,1.7-5.9,4.7 c0,2.7,2,4.1,5.1,4.1c4.3,0,8.3-2.3,8.3-6.6V442.1z"/>
			<path d="M155.2,428.9h-5.4v-10.7h5.4v-11.8H168v11.8h8.3v10.7H168v17.3c0,3.6,1.9,4.2,5.1,4.2c1.5,0,2.3-0.1,3.7-0.2 v10.6c-2.3,0.3-4.7,0.6-7.8,0.6c-9.2,0-13.8-3.1-13.8-11.8V428.9z"/>
			<path d="M182.9,402.8h13.2v11.1h-13.2V402.8z M195.9,460.9h-13v-42.7h13V460.9z"/>
			<path d="M223.5,461.8c-12.6,0-21.4-8.9-21.4-22.2c0-13.3,8.7-22.3,21.4-22.3c12.6,0,21.4,9,21.4,22.3 C244.9,452.9,236,461.8,223.5,461.8z M223.5,451.3c5.2,0,8.5-4.2,8.5-11.7c0-7.5-3.3-11.7-8.5-11.7s-8.5,4.2-8.5,11.7 C215,447.1,218.3,451.3,223.5,451.3z"/>
			<path d="M250.9,418.3h13v4.3c2.3-2.8,6.3-5.2,11.7-5.2c8.7,0,14.3,6.1,14.3,15.4v28.2h-13v-24.5c0-4.3-1.8-7.5-6-7.5 c-3.6,0-7,2.5-7,7.5v24.4h-13V418.3z"/>
			<path d="M295.5,449c0-8.8,7.5-12.4,16.4-13.7l9.6-1.6V433c0-3.2-1.7-5.2-5.9-5.2c-3.7,0-5.7,1.6-6.5,5.1l-12.4-1.9 c1.9-7.5,8.6-13.7,19.4-13.7c11.2,0,18.1,5.1,18.1,15.1v16.4c0,2.2,0.8,2.8,3.3,2.5v9.6c-7.5,1.2-12.5-0.2-14.7-3.8 c-2.8,2.9-7,4.6-12.6,4.6C301.6,461.7,295.5,456.6,295.5,449z M321.5,442.1l-7.5,1.4c-3.4,0.6-5.9,1.7-5.9,4.7 c0,2.7,2,4.1,5.1,4.1c4.3,0,8.3-2.3,8.3-6.6V442.1z"/>
			<path d="M356.2,460.9h-13v-58.2h13V460.9z"/>
		</g>
		<g>
			<path d="M74.9,471.9c16.4,0,27.9,12.4,27.9,30s-11.5,30-27.9,30c-16.3,0-27.9-12.4-27.9-30S58.6,471.9,74.9,471.9z M74.9,483.6c-8.4,0-14.3,7-14.3,18.2s5.8,18.2,14.3,18.2c8.4,0,14.3-7,14.3-18.2S83.3,483.6,74.9,483.6z"/>
			<path d="M128.3,521.1c4.2,0,6.7-3,7.6-7l11.3,4.4c-1.8,7.1-8.5,13.4-19,13.4c-12.6,0-21.5-9.1-21.5-22.2 c0-13.2,8.9-22.3,21.5-22.3c10.4,0,17,6.2,18.9,13.2l-11.2,4.5c-0.9-4-3.4-7-7.6-7c-5.4,0-8.8,4.3-8.8,11.6 C119.5,516.8,122.9,521.1,128.3,521.1z"/>
			<path d="M149.7,509.5c0-12.6,9.1-22.2,21.4-22.2c13,0,20,9.6,20,21.6v3.4h-28.9c0.9,5.8,4.4,9.2,9.3,9.2 c4,0,7.2-1.9,8.4-5.7l10.9,3.5c-3.2,8.2-10.9,12.5-19.4,12.5C158.4,531.8,149.7,522.8,149.7,509.5z M162.6,504.4h15.7 c-0.1-3.8-2.6-7-7.4-7C166.9,497.4,163.9,499.7,162.6,504.4z"/>
			<path d="M194.7,519c0-8.8,7.5-12.4,16.4-13.7l9.6-1.6V503c0-3.2-1.7-5.2-5.9-5.2c-3.7,0-5.7,1.6-6.5,5.1l-12.4-1.9 c1.9-7.5,8.6-13.7,19.4-13.7c11.2,0,18.1,5.1,18.1,15.1v16.4c0,2.2,0.8,2.8,3.3,2.5v9.6c-7.5,1.2-12.5-0.2-14.7-3.8 c-2.8,2.9-7,4.6-12.6,4.6C200.9,531.7,194.7,526.5,194.7,519z M220.7,512.1l-7.5,1.4c-3.4,0.6-5.9,1.7-5.9,4.7 c0,2.7,2,4.1,5.1,4.1c4.3,0,8.3-2.3,8.3-6.6V512.1z"/>
			<path d="M242.5,488.2h13v4.3c2.3-2.8,6.3-5.2,11.7-5.2c8.7,0,14.3,6.1,14.3,15.4v28.2h-13v-24.5c0-4.3-1.8-7.5-6-7.5 c-3.6,0-7,2.5-7,7.5v24.4h-13V488.2z"/>
			<path d="M308.8,531.8c-12.6,0-21.4-8.9-21.4-22.2c0-13.3,8.7-22.3,21.4-22.3c12.6,0,21.4,9,21.4,22.3 C330.1,522.9,321.3,531.8,308.8,531.8z M308.8,521.3c5.2,0,8.5-4.2,8.5-11.7c0-7.5-3.3-11.7-8.5-11.7s-8.5,4.2-8.5,11.7 C300.3,517.1,303.6,521.3,308.8,521.3z"/>
			<path d="M354.8,546.1c-10.6,0-18.1-4.4-20.3-12.7l12.3-2.9c1.1,3.6,4.1,5.8,8.4,5.8c5.3,0,9-2.7,9-9v-2.8 c-2,2.8-6.4,5-11.5,5c-11.7,0-18.4-9.4-18.4-21.1s6.7-21.1,18.4-21.1c5.1,0,9.5,2.3,11.5,5.1v-4.2h13v37.6 C377.2,539,367.9,546.1,354.8,546.1z M356,498c-5.5,0-8.5,4-8.5,10.4c0,6.3,3,10.4,8.5,10.4c4.9,0,8.3-3.5,8.3-9.7v-1.3 C364.3,501.5,360.8,498,356,498z"/>
			<path d="M412.5,500.6c-1.4-0.2-2.3-0.3-3.8-0.3c-5.6,0-10,3.5-10,9.6v21h-13v-42.7h13v5.6c1.9-3.4,6.1-5.8,11-5.8 c1.2,0,2,0.1,2.8,0.2V500.6z"/>
			<path d="M414.6,519c0-8.8,7.5-12.4,16.4-13.7l9.6-1.6V503c0-3.2-1.7-5.2-5.9-5.2c-3.7,0-5.7,1.6-6.5,5.1l-12.4-1.9 c1.9-7.5,8.6-13.7,19.4-13.7c11.2,0,18.1,5.1,18.1,15.1v16.4c0,2.2,0.8,2.8,3.3,2.5v9.6c-7.5,1.2-12.5-0.2-14.7-3.8 c-2.8,2.9-7,4.6-12.6,4.6C420.7,531.7,414.6,526.5,414.6,519z M440.6,512.1l-7.5,1.4c-3.4,0.6-5.9,1.7-5.9,4.7 c0,2.7,2,4.1,5.1,4.1c4.3,0,8.3-2.3,8.3-6.6V512.1z"/>
			<path d="M475.3,526.7v18.5h-13v-56.9h13v4.3c2.4-3.1,6.5-5.2,11.6-5.2c11.7,0,18.4,10,18.4,22.3 c0,12.1-6.6,22.2-18.4,22.2C481.8,531.8,477.7,529.7,475.3,526.7z M475.2,510.8c0,6.4,3.5,10,8.3,10c5.7,0,8.7-4.6,8.7-11.2 s-3-11.2-8.7-11.2c-4.9,0-8.3,3.6-8.3,10V510.8z"/>
			<path d="M511.4,472.8h13v19.8c2.3-2.8,6.3-5.2,11.7-5.2c8.7,0,14.3,6.1,14.3,15.4v28.2h-13v-24.5c0-4.3-1.8-7.5-6-7.5 c-3.6,0-7,2.5-7,7.5v24.4h-13V472.8z"/>
			<path d="M563.8,545.7c-2.3,0-3.4-0.1-4.9-0.2v-10.3c1.1,0.2,1.9,0.2,3.2,0.2c2.8,0,4.5-0.7,5.6-3.6l1.1-2.8 l-15.1-40.8h13.4l8.7,26.2l8.6-26.2h12.9L581,531.9C577.8,540.5,574,545.7,563.8,545.7z"/>
		</g>
		<g>
			<path d="M74.4,590.1c6,0,10.3-3.8,11.7-10l12.7,4.2c-3.6,10.6-11.8,17.5-24.3,17.5c-16,0-27.5-12.4-27.5-30 s11.5-30,27.5-30c12.5,0,20.7,6.9,24.3,17.5l-12.7,4.2c-1.4-6.2-5.7-10-11.7-10c-8.1,0-13.9,7.1-13.9,18.2S66.3,590.1,74.4,590.1z "/>
			<path d="M101.7,579.5c0-12.6,9.1-22.2,21.4-22.2c13,0,20,9.6,20,21.6v3.4h-28.9c0.9,5.8,4.4,9.2,9.3,9.2 c4,0,7.2-1.9,8.4-5.7l10.9,3.5c-3.2,8.2-10.9,12.5-19.4,12.5C110.4,601.8,101.7,592.8,101.7,579.5z M114.5,574.4h15.7 c-0.1-3.8-2.6-7-7.4-7C118.9,567.4,115.8,569.7,114.5,574.4z"/>
			<path d="M149,558.2h13v4.3c2.3-2.8,6.3-5.2,11.7-5.2c8.7,0,14.3,6.1,14.3,15.4v28.2h-13v-24.5c0-4.3-1.8-7.5-6-7.5 c-3.6,0-7,2.5-7,7.5v24.4h-13V558.2z"/>
			<path d="M197.6,568.9h-5.4v-10.7h5.4v-11.8h12.8v11.8h8.3v10.7h-8.3v17.3c0,3.6,1.9,4.2,5.1,4.2 c1.5,0,2.3-0.1,3.7-0.2v10.6c-2.3,0.3-4.7,0.6-7.8,0.6c-9.2,0-13.8-3.1-13.8-11.8V568.9z"/>
			<path d="M252.2,570.6c-1.4-0.2-2.3-0.3-3.8-0.3c-5.6,0-10,3.5-10,9.6v21h-13v-42.7h13v5.6c1.9-3.4,6.1-5.8,11-5.8 c1.2,0,2,0.1,2.8,0.2V570.6z"/>
			<path d="M254,579.5c0-12.6,9.1-22.2,21.4-22.2c13,0,20,9.6,20,21.6v3.4h-28.9c0.9,5.8,4.4,9.2,9.3,9.2 c4,0,7.2-1.9,8.4-5.7l10.9,3.5c-3.2,8.2-10.9,12.5-19.4,12.5C262.8,601.8,254,592.8,254,579.5z M266.9,574.4h15.7 c-0.1-3.8-2.6-7-7.4-7C271.3,567.4,268.2,569.7,266.9,574.4z"/>
		</g>
	</g>
</svg>
